<?xml version="1.0" standalone="no"?><!DOCTYPE svg PUBLIC "-//W3C//DTD SVG 1.1//EN" "http://www.w3.org/Graphics/SVG/1.1/DTD/svg11.dtd"><svg t="1520333035197" class="icon" style="" viewBox="0 0 1024 1024" version="1.1" xmlns="http://www.w3.org/2000/svg" p-id="6103" xmlns:xlink="http://www.w3.org/1999/xlink" width="200" height="200"><defs><style type="text/css"></style></defs><path d="M516.266667 1024l-8.533333 0C253.866667 1024 49.066667 819.2 49.066667 565.333333L49.066667 119.466667c0-12.8 8.533333-21.333333 21.333333-21.333333l106.666667 0c87.466667 0 174.933333-21.333333 253.866667-59.733333l72.533333-36.266667c6.4-2.133333 12.8-2.133333 19.2 0l72.533333 36.266667c78.933333 38.4 166.4 59.733333 253.866667 59.733333l106.666667 0c12.8 0 21.333333 8.533333 21.333333 21.333333s-8.533333 21.333333-21.333333 21.333333l-106.666667 0c-93.866667 0-187.733333-21.333333-273.066667-64l-64-32-61.866667 32c-85.333333 42.666667-179.2 64-273.066667 64l-85.333333 0 0 424.533333C91.733333 795.733333 277.333333 981.333333 507.733333 981.333333l8.533333 0c228.266667 0 416-185.6 416-416l0-298.666667-405.333333 390.4c-8.533333 8.533333-21.333333 8.533333-29.866667 0l-200.533333-200.533333c-8.533333-8.533333-8.533333-21.333333 0-29.866667s21.333333-8.533333 29.866667 0l185.6 185.6L938.666667 202.666667c6.4-6.4 14.933333-8.533333 23.466667-4.266667 8.533333 4.266667 12.8 10.666667 12.8 19.2l0 347.733333C974.933333 819.2 770.133333 1024 516.266667 1024z" p-id="6104" fill="#ffffff"></path></svg>